<svg width="239" height="332" viewBox="0 0 239 332" fill="none" xmlns="http://www.w3.org/2000/svg">
<path fill-rule="evenodd" clip-rule="evenodd" d="M96.9212 140.291C96.6771 140.762 95.9623 145.521 98.7692 145.521C99.2596 145.522 99.7339 145.347 100.105 145.026C100.477 144.706 100.72 144.263 100.792 143.778C101.384 138.443 97.8975 138.46 96.9212 140.291ZM122.201 140.221C122.358 142.069 122.567 143.708 124.415 143.708C124.905 143.709 125.38 143.533 125.751 143.213C126.122 142.893 126.366 142.45 126.437 141.965C126.475 140.843 126.352 139.722 126.071 138.635C125.06 136.769 121.939 137.223 122.201 140.221ZM109.997 157.063C110.537 157.063 115.227 156.836 116.325 155.982C116.657 155.738 116.622 155.267 116.622 154.831C116.517 149.886 116.039 144.955 115.192 140.082C115.192 139.82 114.966 139.768 114.826 139.803C114.687 139.838 114.617 140.082 114.634 140.5C114.634 141.93 114.512 142.418 115.018 150.42C115.349 155.651 115.21 154.186 115.314 155.058C113.679 155.657 112.001 156.129 110.293 156.47C109.16 156.714 109.962 157.063 109.997 157.063ZM115.506 169.127C114.213 169.821 112.786 170.231 111.322 170.33C111.248 170.33 111.177 170.36 111.125 170.412C111.072 170.464 111.043 170.535 111.043 170.609C111.043 170.683 111.072 170.754 111.125 170.806C111.177 170.859 111.248 170.888 111.322 170.888C112.141 171.183 113.016 171.289 113.882 171.198C114.747 171.108 115.582 170.823 116.322 170.366C117.063 169.909 117.691 169.29 118.159 168.556C118.628 167.823 118.924 166.993 119.028 166.129C119.037 166.093 119.039 166.056 119.034 166.02C119.029 165.984 119.017 165.949 118.998 165.917C118.979 165.885 118.955 165.858 118.925 165.836C118.896 165.814 118.863 165.798 118.827 165.789C118.792 165.779 118.755 165.777 118.719 165.782C118.682 165.788 118.647 165.8 118.616 165.818C118.584 165.837 118.557 165.862 118.535 165.891C118.513 165.92 118.496 165.954 118.487 165.989C117.781 167.275 116.754 168.356 115.506 169.127ZM37.3657 34.6743C41.8463 49.6503 57.6941 48.918 59.5421 50.0338C59.5421 50.2082 63.1684 64.173 64.6329 66.0908C65.4523 67.1543 67.4224 66.7359 68.7299 66.4918C71.7984 65.8816 75.355 65.6898 77.9527 63.6151C78.6152 63.0747 78.2316 60.8779 78.0573 60.1283C77.5024 56.9935 76.7335 53.9004 75.756 50.8707C75.3715 49.9566 75.0454 49.0191 74.7796 48.0638C75.9827 46.998 77.2913 46.0575 78.6849 45.2569C80.9853 43.6897 83.0315 41.7788 84.752 39.5907C88.081 34.7139 89.5858 28.8204 89.0024 22.9446C88.4189 17.0688 85.7845 11.5863 81.5616 7.45938C68.6428 -5.21533 45.2809 -1.08341 37.697 14.9038C35.0993 20.4479 35.6049 28.8512 37.3657 34.6743ZM77.1507 62.7783C74.8319 64.6437 71.4148 64.8878 68.4336 65.498C67.6316 65.6724 65.7313 66.1431 65.2257 65.498C64.2392 64.0741 63.5295 62.4772 63.1336 60.7908C67.6496 60.1543 72.0667 58.9475 76.279 57.1993C76.8489 59.0045 77.1427 60.8853 77.1507 62.7783ZM76.0872 56.4845C71.6324 57.3147 67.2576 58.528 63.0115 60.1108C62.5612 58.0874 61.9788 56.0956 61.2681 54.1483C65.7724 53.6766 70.1901 52.5854 74.3961 50.9055C75.0995 52.7485 75.6819 54.6354 76.1395 56.5542L76.0872 56.4845ZM38.7953 15.4443C46.1003 0.346199 68.4336 -3.4719 80.6376 8.47056C84.6041 12.3612 87.0855 17.5162 87.6523 23.0433C88.219 28.5705 86.8354 34.1218 83.7409 38.7364C80.7247 42.9904 74.6227 45.9193 73.6813 47.4536C73.35 47.994 73.9602 49.3713 74.3438 50.3477C72.3563 50.7312 70.177 51.2019 68.2244 51.6378C67.7013 49.2493 65.2605 39.6082 64.354 37.3417C64.0053 36.4351 63.6915 36.5049 62.7674 36.7664C57.6766 36.7664 52.0802 35.4762 50.2845 30.6818C50.0676 30.1198 49.9155 29.5349 49.8312 28.9384C49.5871 26.4279 51.5746 23.4989 53.7714 23.7081C53.4575 25.6259 53.7714 29.2871 55.4102 30.3854C57.049 31.4838 58.897 29.7404 58.897 28.1713C58.8041 27.0398 58.4363 25.9481 57.8256 24.991C57.2149 24.034 56.3798 23.2405 55.3927 22.6795C55.6668 22.0571 56.073 21.5017 56.583 21.0519C57.0931 20.6021 57.6949 20.2687 58.3467 20.0746C58.9985 19.8806 59.6847 19.8306 60.3577 19.9282C61.0308 20.0257 61.6745 20.2685 62.2444 20.6397C60.8671 23.3246 62.2444 29.4788 64.6852 28.0318C67.126 26.5848 66.324 23.0282 64.8072 21.0581C64.075 20.0992 63.9181 20.3607 64.2842 20.0818C67.126 18.0071 70.3513 20.413 71.7112 23.5686C73.6638 27.9098 69.4796 33.2621 66.8296 34.8835C66.7649 34.9228 66.7184 34.9862 66.7004 35.0597C66.6824 35.1333 66.6944 35.211 66.7337 35.2757C66.773 35.3405 66.8364 35.3869 66.91 35.4049C66.9836 35.4229 67.0613 35.4109 67.126 35.3716C70.3688 33.4713 74.4658 27.8749 72.6004 23.1676C70.7349 18.4604 66.0451 16.6472 63.0813 19.4541C62.335 18.9421 61.4833 18.604 60.589 18.4648C59.6947 18.3256 58.7806 18.3888 57.914 18.6498C57.0474 18.9108 56.2504 19.3629 55.5817 19.9728C54.913 20.5827 54.3897 21.3349 54.0503 22.1739C50.8075 21.7555 48.0704 25.5387 48.4365 28.9733C48.6334 30.4913 49.2072 31.9358 50.1056 33.1752C51.0039 34.4147 52.1982 35.4095 53.5796 36.069C55.2184 36.8535 61.0414 38.2831 63.3428 37.6206C64.1447 39.3641 67.0563 49.598 67.5793 51.7424C59.8385 53.4858 61.4076 54.3052 61.024 53.172C60.5707 51.7598 60.2918 49.6852 59.9082 49.5457C50.2845 47.3664 41.6022 45.7624 38.3595 34.343C36.773 28.8163 36.3545 20.6222 38.7953 15.4443ZM54.9743 24.0568C55.635 24.5255 56.187 25.1309 56.5931 25.8318C56.9992 26.5327 57.2498 27.3127 57.3279 28.119C57.3279 28.5897 56.2645 29.8624 55.5845 28.4677C55.064 27.0594 54.8789 25.5491 55.0441 24.0568H54.9743ZM63.2033 21.3894C64.598 22.7492 65.4697 25.9223 63.953 26.8463C63.4272 26.0509 63.0869 25.1477 62.9571 24.2031C62.8274 23.2586 62.9115 22.297 63.2033 21.3894ZM10.9005 87.9359C17.9963 85.7218 26.5913 87.6395 29.9039 95.4849C35.6397 108.77 20.4719 115.534 20.6288 116.232C20.9775 117.975 21.6051 121.026 21.8667 122.787C21.8875 122.935 21.9662 123.069 22.0855 123.159C22.2049 123.248 22.355 123.287 22.503 123.266C22.651 123.246 22.7846 123.167 22.8745 123.048C22.9644 122.928 23.0033 122.778 22.9825 122.63C22.7732 120.887 22.5466 118.376 22.3025 116.563C24.7675 115.574 27.0484 114.177 29.0496 112.431C41.3582 97.9083 27.62 79.5849 10.0637 85.3208C7.28372 86.1314 4.825 87.7872 3.02866 90.0584C1.23231 92.3296 0.187427 95.1036 0.0389659 97.9955C-0.51893 104.865 4.95543 110.792 13.7946 110.025C13.9278 110.002 14.0485 109.932 14.1355 109.828C14.2225 109.725 14.2702 109.594 14.2702 109.459C14.2702 109.323 14.2225 109.192 14.1355 109.089C14.0485 108.985 13.9278 108.915 13.7946 108.892C5.94918 109.293 1.74752 103.662 2.4972 98.257C2.67087 95.8827 3.57018 93.6191 5.0733 91.7729C6.57641 89.9268 8.61068 88.5873 10.9005 87.9359ZM141.117 42.4499C141.265 42.4892 141.422 42.4682 141.555 42.3913C141.687 42.3145 141.784 42.1882 141.823 42.0402C141.862 41.8923 141.841 41.7348 141.764 41.6023C141.688 41.4699 141.561 41.3734 141.413 41.3341C133.864 39.2072 131.685 32.5298 134.126 27.6308C135.076 25.4428 136.677 23.6001 138.71 22.3526C140.744 21.1051 143.112 20.5132 145.493 20.6571C158.604 20.9884 164.357 33.0529 159.44 41.6654C156.18 47.5582 151.822 49.1447 146.243 49.8769C146.066 49.9017 145.903 49.9831 145.777 50.109C145.652 50.2348 145.57 50.3981 145.545 50.5743C145.354 52.1783 144.935 55.3338 144.621 57.1644C144.591 57.3101 144.62 57.4617 144.702 57.586C144.784 57.7102 144.911 57.7969 145.057 57.827C145.203 57.857 145.354 57.828 145.479 57.7462C145.603 57.6645 145.69 57.5367 145.72 57.3911C146.121 55.5082 146.661 53.294 147.027 51.4286C149.676 51.2861 152.281 50.6967 154.733 49.6852C160.643 46.1983 164.235 40.6891 163.764 33.7154C162.666 17.3446 138.781 11.4867 131.912 26.7417C129.244 32.9483 132.487 40.4973 141.117 42.4499ZM237.982 124.251C237.782 121.02 236.629 117.92 234.669 115.343C232.784 113.221 230.484 111.508 227.911 110.309C225.339 109.109 222.548 108.449 219.711 108.369C216.823 108.235 213.964 109.002 211.531 110.564C209.098 112.125 207.21 114.405 206.129 117.086C203.392 123.415 206.687 130.789 215.282 132.881C215.359 132.916 215.442 132.933 215.526 132.932C215.61 132.931 215.693 132.911 215.769 132.875C215.844 132.838 215.911 132.786 215.964 132.721C216.017 132.656 216.055 132.58 216.076 132.498C216.097 132.417 216.099 132.332 216.084 132.25C216.068 132.167 216.035 132.089 215.986 132.021C215.936 131.953 215.873 131.896 215.8 131.855C215.726 131.814 215.645 131.789 215.561 131.783C208.065 129.517 205.833 123.066 208.291 118.08C209.242 115.892 210.842 114.049 212.876 112.802C214.909 111.554 217.277 110.962 219.658 111.106C222.076 111.173 224.455 111.73 226.652 112.743C228.848 113.756 230.817 115.204 232.438 116.999C234.071 119.13 235.041 121.695 235.227 124.374C236.465 139.751 219.902 139.803 219.746 141.023C219.536 142.767 219.153 145.835 218.822 147.613C218.791 147.759 218.82 147.911 218.902 148.035C218.984 148.159 219.112 148.246 219.257 148.276C219.403 148.306 219.555 148.277 219.679 148.195C219.803 148.113 219.89 147.986 219.92 147.84C220.338 145.975 220.861 143.743 221.227 141.878C223.881 141.729 226.491 141.139 228.951 140.134C234.774 136.717 238.452 131.295 237.982 124.251ZM29.6249 136.002C30.3746 132.899 28.1256 129.639 25.894 129.9C24.4467 129.744 22.9892 129.703 21.5354 129.778C17.7522 130.685 15.9739 135.636 19.5305 138.059C23.6101 140.779 28.8927 138.896 29.6249 136.002ZM26.9226 135.654C26.3034 136.17 25.5451 136.492 24.7433 136.578C20.0012 137.24 18.99 133.091 22.1805 131.731L25.9288 131.033C27.5502 131.173 27.9163 134.642 26.9226 135.566V135.654ZM143.174 63.8243C139.112 62.3424 134.719 66.9276 137.595 70.798C140.472 74.6684 146.173 74.6684 147.812 72.0882C149.451 69.5079 148.457 65.6026 146.26 65.1145C146.068 65.0273 144.552 64.3299 143.174 63.8243ZM145.371 70.798C144.591 71.0634 143.756 71.1227 142.946 70.9699C142.137 70.8172 141.38 70.4577 140.751 69.9263C140.236 69.5564 139.812 69.0733 139.513 68.5142C139.007 67.102 140.821 65.6549 142.146 65.5678L145.911 66.1082C147.376 66.8928 146.644 70.3099 145.371 70.8503V70.798ZM220.408 155.668C220.059 155.511 218.264 154.761 217.34 154.413C213.26 152.931 208.884 157.516 211.761 161.386C214.637 165.257 220.321 165.257 221.977 162.677C223.633 160.096 222.622 156.156 220.408 155.668ZM219.519 161.439C218.739 161.702 217.904 161.761 217.095 161.608C216.285 161.455 215.529 161.097 214.899 160.567C214.388 160.185 213.966 159.698 213.661 159.137C213.173 157.743 214.969 156.296 216.294 156.208L220.059 156.749C221.524 157.481 220.792 160.881 219.519 161.439Z" fill="black"/>
<path fill-rule="evenodd" clip-rule="evenodd" d="M206.164 251.835C202.677 234.68 189.113 208.25 172.83 201.503L169.552 194.651C169.529 194.601 169.495 194.557 169.453 194.522C169.411 194.486 169.362 194.46 169.309 194.445C169.256 194.43 169.201 194.427 169.146 194.435C169.092 194.444 169.04 194.464 168.994 194.494L165.507 196.743C164.4 189.343 161.018 182.47 155.831 177.077C159.458 171.481 165.263 169.772 171.261 169.511C176.23 169.302 179.891 169.005 182.767 164.751C188.468 156.348 187.126 148.154 180.431 140.343C170.232 128.453 166.222 132.01 161.254 125.437C151.804 113.094 149.66 94.8399 135.747 85.3382C117.964 73.2912 108.375 83.0021 104.644 86.0007C99.1876 82.6882 87.0185 83.8389 81.7882 88.3195C77.3424 92.1202 71.4497 97.0366 69.1658 102.528C64.3016 114.122 64.8246 127.843 57.7115 138.356C55.968 140.971 52.9868 142.732 50.8772 145.207C47.9817 148.838 45.5185 152.793 43.5374 156.993C40.9571 161.875 38.9871 167.297 41.3407 172.353C44.4963 179.117 51.5572 185.568 59.0888 185.08C63.4473 184.783 69.2181 182.168 73.3151 183.894C75.7559 184.905 76.6974 187.259 78.5454 189.229C82.7296 193.884 92.4928 195.296 97.8974 192.071C91.9523 199.637 82.8865 199.376 67.0737 208.093C42.8052 221.448 33.9486 236.615 31.3509 252.149C30.3571 256.982 29.6239 261.865 29.1541 266.777C27.6548 292.109 35.3433 324.222 60.2743 329.54C67.1085 331.004 74.9365 331.946 81.701 330.255C94.5152 327.064 109.805 318.434 121.033 311.426C126.263 308.166 145.615 295.107 154.611 293.399C155.153 298.052 156.326 302.609 158.098 306.945C165.298 321.747 176.822 330.499 192.966 326.698C203.427 324.24 206.408 313.099 206.687 302.43C211.935 291.167 207.768 260.03 206.164 251.835ZM145.842 170.208C148.945 170.784 151.072 173.695 153.373 176.066C159.458 182.151 163.642 188.671 164.897 196.987C159.859 200.195 156.581 202.218 156.511 202.322C156.442 202.427 154.018 196.255 152.554 195.505C150.363 194.418 148.375 192.961 146.678 191.199C145.371 189.752 143.767 187.207 143.976 185.289C144.903 184.796 145.914 184.482 146.957 184.365V183.284C141.57 183.441 139.722 188.357 139.234 189.456C138.885 190.24 138.397 191.025 137.281 190.903C136.166 190.781 135.765 189.491 136.183 188.34C136.601 187.189 137.613 182.133 144.743 181.035C144.833 181.022 144.919 180.992 144.996 180.946C145.074 180.901 145.142 180.84 145.196 180.768C145.25 180.696 145.29 180.614 145.312 180.527C145.335 180.439 145.34 180.348 145.327 180.259C145.315 180.17 145.285 180.084 145.239 180.006C145.193 179.928 145.132 179.861 145.06 179.806C144.988 179.752 144.906 179.713 144.819 179.69C144.732 179.668 144.641 179.662 144.552 179.675C143.059 179.865 141.613 180.319 140.28 181.017C139.082 181.602 138.019 182.43 137.158 183.447C136.296 184.464 135.656 185.65 135.276 186.928C134.44 189.316 131.511 188.253 132.208 186.195C132.91 184.194 133.954 182.33 135.294 180.686C136.782 179.268 138.569 178.201 140.524 177.565C142.058 176.938 143.366 177.234 143.715 176.729C144.063 176.223 143.244 174.532 142.826 174.026C140.576 171.341 134.108 173.66 131.633 170.662C130.046 168.691 133.376 168.622 134.719 168.447C138.484 168.029 142.058 169.493 145.842 170.208ZM152.24 213.41C147.256 215.035 142.172 216.333 137.02 217.298C138.763 207.378 139.949 198.87 139.775 195.784C143.837 196.569 148.492 197.127 153.582 197.964C154.96 200.247 155.709 202.165 156.041 202.706L152.658 204.85C152.484 205.077 152.519 204.135 152.24 213.41ZM133.306 263.778C134.078 267.126 134.626 270.521 134.945 273.942C127.797 273.489 122.34 273.576 119.655 273.471C119.76 268.572 119.812 267.056 119.899 266.027C124.299 264.912 128.783 264.16 133.306 263.778ZM105.882 220.837C115.773 220.908 125.65 220.103 135.399 218.431C132.295 235.168 127.571 255.287 125.339 259.315C120.213 245.332 120.736 245.28 105.882 220.837ZM126.803 259.088C129.628 252.759 133.917 233.878 136.776 218.152C141.98 217.177 147.112 215.849 152.135 214.177C151.595 233.006 151.438 256.508 152.571 275.389C149.259 275.093 144.447 274.674 139.775 274.308C139.478 271.484 138.31 261.651 137.316 259.071C137.055 258.373 136.741 258.094 135.573 258.059C132.657 258.187 129.755 258.531 126.891 259.088H126.803ZM133.027 192.576C131.262 191.544 129.851 190 128.983 188.148C129.79 188.489 130.632 188.74 131.493 188.898C131.82 189.266 132.242 189.537 132.712 189.681C133.183 189.826 133.684 189.838 134.161 189.717C134.945 189.473 134.44 189.368 134.858 190.467C135.019 190.909 135.289 191.304 135.645 191.612C136 191.921 136.428 192.135 136.888 192.232C137.349 192.33 137.827 192.309 138.277 192.171C138.727 192.033 139.134 191.782 139.461 191.443C140.141 190.833 140.193 190.101 141.012 188.532C141.814 188.375 142.599 188.166 143.366 187.939C145.441 193.378 151.944 196.011 152.397 196.412C144.743 195.279 137.961 194.564 133.115 192.576H133.027ZM99.606 190.484C103.79 185.638 102.936 182.168 98.6297 178.734C89.9125 171.899 90.9935 173.73 87.3323 166.094C83.026 153.698 86.7395 134.172 89.93 121.462C90.8017 117.975 96.7468 114.244 101.07 114.802C107.068 115.569 104.557 118.725 109.683 120.521C110.573 120.781 111.493 120.921 112.42 120.939C112.475 120.956 112.533 120.962 112.59 120.957C112.648 120.952 112.703 120.936 112.754 120.909C112.805 120.882 112.851 120.846 112.887 120.802C112.924 120.757 112.952 120.706 112.969 120.651C112.987 120.596 112.993 120.539 112.988 120.481C112.982 120.424 112.966 120.368 112.939 120.317C112.913 120.266 112.876 120.221 112.832 120.184C112.788 120.147 112.737 120.119 112.682 120.102C109.963 118.471 107.456 116.509 105.22 114.262C106.283 109.921 108.986 107.55 114.059 107.515C117.546 107.515 120.3 110.165 122.776 112.431C125.775 115.168 129 122.56 128.756 126.623C128.205 131.33 129.308 136.082 131.877 140.064C133.62 143.098 136.898 145.731 138.851 148.293C139.931 149.723 139.304 156.104 138.676 158.911C137.857 161.369 136.113 166.059 135.712 167.122C128.425 167.384 128.739 171.289 132.225 172.963C128.965 176.868 120.998 181.209 126.699 186.684C127.919 189.246 129.872 192.751 132.487 193.814C134.343 194.566 136.262 195.15 138.223 195.558C138.606 198.26 137.351 207.204 135.433 217.612C125.427 219.276 115.292 220.041 105.15 219.896C98.8563 209.592 92.5974 199.829 91.0109 198.26C94.5333 196.469 97.5264 193.789 99.6932 190.484H99.606ZM87.7158 199.672C91.2027 198.365 89.4592 198.591 90.2961 199.236C91.1329 199.881 96.8862 208.999 103.564 219.826C95.6484 219.704 86.7395 219.111 83.3747 218.728C84.3859 217.926 81.7707 204.153 80.7595 202.409C83.2875 201.398 85.6237 200.509 87.803 199.672H87.7158ZM79.4694 202.95C80.9029 208.083 81.8773 213.334 82.3809 218.641C74.8581 217.562 67.4787 215.65 60.3789 212.94C66.4629 209.048 72.8807 205.705 79.5566 202.95H79.4694ZM81.0559 328.999C74.5181 330.638 66.8644 329.679 60.2743 328.267C49.9706 326.053 42.84 319.167 38.2025 310.345C30.8278 296.397 28.6311 275.668 30.8801 261.145C31.3334 258.234 31.9088 255.357 32.3969 252.428C35.169 235.813 45.2634 223.296 59.3503 213.829C73.1756 218.902 82.4681 220.68 104.191 220.802C119.237 245.21 119.568 247.651 123.874 259.594C122.549 259.838 116.413 261.076 115.367 261.93C114.948 262.261 114.948 262.924 115.367 273.402C99.5014 273.715 83.9849 276.191 69.3924 285.606C67.649 273.035 69.6539 269.235 73.7161 262.034C80.097 250.72 78.9464 248.628 74.9191 242.194C74.2552 241.326 73.7801 240.328 73.5243 239.265C73.5243 238.847 71.7809 238.272 74.2391 242.595C77.726 248.941 78.6674 250.441 72.4957 261.337C67.9802 269.322 66.1322 273.419 68.8519 285.972C67.6315 286.791 66.2368 287.715 64.8944 288.796C62.8434 290.24 60.9188 291.856 59.1411 293.625C59.1064 293.692 59.0998 293.77 59.1227 293.842C59.1455 293.914 59.1961 293.974 59.2631 294.009C59.3302 294.044 59.4082 294.05 59.4802 294.027C59.5521 294.004 59.612 293.954 59.6467 293.887C60.1871 292.928 69.2006 286.913 71.624 285.675C85.153 278.859 100.112 272.966 124.607 274.587C124.298 284.952 125.371 295.312 127.797 305.394C115.21 313.344 97.3221 324.955 81.1431 328.999H81.0559ZM128.878 304.696C126.638 294.864 125.648 284.789 125.932 274.709C152.397 276.453 144.098 275.895 152.641 276.453C152.955 281.543 153.426 287.07 154.123 292.143C147.289 293.416 134.998 300.913 128.965 304.696H128.878ZM192.234 325.443C176.84 329.087 165.908 320.683 158.97 306.457C151.299 290.766 152.571 222.616 153.007 205.251L168.942 195.383C190.456 241.846 193.036 246.239 197.865 261.633C204.107 281.247 212.336 320.805 192.321 325.443H192.234ZM206.286 298.768C205.882 289.433 204.444 280.171 201.997 271.153C196.471 249.656 190.491 238.882 173.946 204.1L174.434 203.839C189.044 211.649 201.422 235.901 204.665 252.097C206.443 260.553 209.843 288.203 206.373 298.768H206.286Z" fill="black"/>
</svg>
