<svg width="310" height="284" viewBox="0 0 310 284" fill="none" xmlns="http://www.w3.org/2000/svg">
<g clip-path="url(#clip0_103_202)">
<path fill-rule="evenodd" clip-rule="evenodd" d="M89.0634 66.144V67.1522C89.0634 67.4347 89.1858 67.7056 89.4038 67.9053C89.6218 68.105 89.9175 68.2172 90.2258 68.2172C90.5342 68.2172 90.8299 68.105 91.0479 67.9053C91.2659 67.7056 91.3884 67.4347 91.3884 67.1522V66.0872C91.3724 65.8072 91.2397 65.5435 91.0176 65.3505C90.7955 65.1576 90.5009 65.0503 90.1948 65.0506C90.0415 65.0524 89.8902 65.0823 89.7497 65.1386C89.6092 65.1949 89.4825 65.2765 89.377 65.3784C89.2715 65.4803 89.1894 65.6006 89.1356 65.7321C89.0817 65.8636 89.0571 66.0037 89.0634 66.144ZM88.6138 63.1762C90.3188 62.807 91.7139 61.7562 89.2339 61.8982C88.6196 61.9767 88.0131 62.1002 87.4204 62.2674C85.0954 63.1478 87.1103 63.5028 88.6138 63.1762ZM230.826 73.0594C230.112 74.4324 228.917 75.547 227.432 76.226C227.374 76.2448 227.326 76.2814 227.294 76.3295C227.263 76.3776 227.251 76.4342 227.26 76.4896C227.269 76.545 227.299 76.5958 227.344 76.6332C227.39 76.6706 227.448 76.6923 227.509 76.6946C228.011 76.7756 228.527 76.742 229.011 76.5969C229.495 76.4518 229.933 76.1996 230.285 75.8627C230.638 75.5258 230.894 75.1144 231.032 74.6651C231.169 74.2158 231.184 73.7424 231.074 73.2866C231.074 73.2264 231.048 73.1686 231.002 73.126C230.955 73.0834 230.892 73.0594 230.826 73.0594ZM224.657 61.7988C224.359 61.729 224.044 61.7686 223.777 61.9092C223.511 62.0498 223.315 62.2803 223.231 62.5514C223.091 63.0137 223.065 63.4987 223.154 63.9714C223.154 64.2539 223.276 64.5248 223.494 64.7245C223.712 64.9242 224.008 65.0364 224.316 65.0364C224.625 65.0364 224.92 64.9242 225.138 64.7245C225.356 64.5248 225.479 64.2539 225.479 63.9714C225.479 62.949 225.727 62.0686 224.657 61.7988ZM171.353 201.314C170.097 200.732 146.088 202.166 145.483 204.637C145.359 205.176 145.747 207.249 146.429 207.59C147.777 208.243 170.872 207.051 172.143 204.75C172.505 204.191 172.624 203.527 172.478 202.891C172.331 202.255 171.93 201.692 171.353 201.314ZM146.723 206.994C146.245 206.306 145.988 205.509 145.979 204.693C146.289 203.415 159.077 202.72 160.487 202.634C160.454 203.782 160.776 204.914 161.417 205.9C159.65 206.156 147.56 207.406 146.723 207.036V206.994ZM171.012 204.154C169.787 204.949 163.572 205.673 162.084 205.844C162.214 204.72 161.954 203.587 161.34 202.606C163.184 202.492 169.09 202.194 170.841 202.336C171.306 202.649 171.322 203.614 171.012 204.182V204.154ZM130.619 204.679C130.577 204.655 130.529 204.643 130.479 204.643C130.43 204.643 130.382 204.655 130.34 204.679C130.34 204.537 100.735 219.816 99.8359 221.435C99.7958 221.513 99.775 221.598 99.775 221.684C99.775 221.77 99.7958 221.855 99.8359 221.932C100.781 224.417 131.673 250.006 132.959 250.588C133.331 250.758 133.796 250.46 135.253 249.75C138.353 248.231 164.812 235.28 167.54 233.193C168.299 232.483 168.764 226.093 168.346 225.369C167.927 224.644 130.619 204.821 130.619 204.679ZM133.3 249.409C129.999 247.009 103.85 225.425 100.952 221.762C103.649 219.433 129.735 205.588 130.526 205.162C134.525 207.391 163.308 223.437 166.997 225.709C165.048 226.226 163.193 227.006 161.495 228.024C160.611 228.805 162.812 230.253 165.866 232.966C161.2 235.72 138.059 247.08 133.3 249.409ZM166.749 232.156C166.594 232.014 162.859 228.677 162.688 228.549C164.194 227.688 165.746 226.897 167.338 226.178C167.343 228.184 167.136 230.187 166.718 232.156H166.749Z" fill="black"/>
<path fill-rule="evenodd" clip-rule="evenodd" d="M153.869 229.543C152.784 229.969 139.547 233.988 135.811 235.38C134.713 235.881 133.517 236.175 132.293 236.246C132.076 236.246 133.331 234.031 142.833 227.243C143.825 226.533 145.731 225.184 145.933 224.076C146.847 220.413 136.013 225.894 126.325 229.359C125.323 229.852 124.23 230.17 123.101 230.296C122.993 229.714 125.178 227.882 125.318 227.74C131.099 221.89 138.431 219.476 137.935 217.317C137.175 213.938 123.721 220.512 120.885 221.577C118.498 222.5 114.685 223.608 114.917 223.608C114.406 223.792 114.917 224.119 115.01 224.076C115.103 224.034 120.017 222.656 121.21 222.174C122.993 221.549 134.912 216.281 136.896 217.516C137.687 218.027 129.255 222.188 124.496 227.002C123.659 227.825 121.396 229.501 122.094 230.864C122.222 231.075 122.415 231.245 122.65 231.354C122.885 231.463 123.15 231.505 123.411 231.475C125.721 231.475 141.469 224.247 144.708 224.02C143.965 224.918 143.076 225.709 142.073 226.363C139.764 228.038 133.068 233.037 131.518 235.337C130.712 236.53 131.378 237.24 132.432 237.254C133.827 237.254 135.532 236.388 139.733 234.939C153.977 229.913 154.427 230.14 154.194 229.671C154.182 229.643 154.164 229.617 154.141 229.596C154.118 229.574 154.091 229.557 154.061 229.545C154.03 229.533 153.998 229.527 153.965 229.526C153.932 229.526 153.899 229.532 153.869 229.543Z" fill="black"/>
<path fill-rule="evenodd" clip-rule="evenodd" d="M302.25 175.399C302.049 160.545 300.592 130.228 297.383 115.531C295.694 107.736 292.036 97.0715 285.231 91.9169C282.348 89.7443 278.101 87.6569 270.398 83.7519C270.491 83.5673 258.23 79.0233 257.657 80.5285C257.18 77.9386 256.512 75.3814 255.657 72.8747C256.804 72.5339 256.293 69.4667 256.773 67.7343C257.254 66.0019 259.067 64.7665 259.997 63.3465C262.09 60.1799 262.446 54.6561 262.059 50.9783C261.687 47.5561 256.231 39.9165 252.635 38.6669C249.039 37.4173 245.35 37.4599 241.552 36.7641C238.452 36.1819 236.158 34.6057 232.686 34.2081C229.214 33.8105 227.137 35.6281 224.161 35.6281C221.185 35.6281 217.837 33.5123 214.722 33.3419C213.029 33.3178 211.384 33.8573 210.093 34.8601C208.802 35.8629 207.951 37.261 207.7 38.7947C207.324 41.0807 207.62 43.4171 208.557 45.5636C209.494 47.71 211.039 49.5889 213.032 51.0067C215.459 52.4132 218.186 53.3282 221.03 53.6905C220.844 60.9467 221.681 59.0013 220.751 59.6403C219.821 60.2793 220.116 64.7523 220.441 65.9877C220.581 66.4847 220.72 66.6693 221.387 66.8681C221.015 68.2881 218.395 71.3553 220.751 72.1079C221.061 72.2073 222.301 72.4061 222.425 72.4487C222.743 73.7953 223.21 75.1086 223.82 76.3679C224.421 77.6339 225.3 78.7736 226.401 79.7164C227.502 80.6591 228.802 81.385 230.222 81.8491C232.454 82.6443 234.221 82.8573 235.523 83.2691C235.702 83.8563 235.796 84.4627 235.802 85.0725C230.266 86.4053 225.052 88.6736 220.426 91.7607C212.04 97.9945 200.12 123.853 197.005 126.693C195.796 127.786 167.322 132.841 163.122 135.454C162.3 135.965 162.27 136.405 162.378 137.314C161.355 137.485 157.046 138.223 156.566 139.061C156.424 139.669 156.461 140.302 156.674 140.893C152.839 140.237 148.969 139.763 145.08 139.473C144.368 139.488 143.668 139.64 143.025 139.919C142.381 140.198 141.809 140.597 141.344 141.091C140.042 142.511 141.096 142.27 139.717 142.071C136.787 141.688 126.294 144.911 124.976 145.479C124.976 144.968 124.976 144.613 124.387 144.329C122.658 143.87 120.85 143.706 119.055 143.846C117.97 144.514 122.155 144.286 123.891 145.11C123.891 146.203 124.047 157.421 123.891 159.622C123.891 160.02 123.892 159.963 123.566 160.006C122.016 160.205 119.784 160.006 119.102 160.46C119.35 155.519 119.102 143.42 118.358 142.71C117.909 142.284 109.632 141.375 100.626 140.381C100.658 134.412 100.296 128.447 99.541 122.518C97.8825 109.34 94.4105 93.8055 83.5605 85.9245C84.1892 86.1597 84.8812 86.2142 85.5445 86.0807C86.4303 85.7586 87.3838 85.6227 88.3345 85.6831C89.8845 86.0665 90.086 87.1031 93.961 84.7175C94.209 84.5613 94.86 84.6039 95.3715 84.1353C97.123 82.5307 96.2395 80.3581 96.2395 78.7393C96.4962 77.6388 96.5797 76.5103 96.4875 75.3881C96.44 75.2208 96.3509 75.0658 96.2272 74.9353C96.1035 74.8047 95.9486 74.7021 95.7745 74.6355C95.7745 74.1669 96.317 73.3291 95.542 72.4203C96.658 71.8807 97.867 71.2559 97.247 70.1483C96.0626 68.4129 95.0857 66.5657 94.333 64.6387C93.8525 62.9915 94.5035 60.8899 94.4725 59.1149C94.4725 57.8937 94.612 56.4311 94.4725 55.0963C95.668 54.3315 96.5816 53.2519 97.092 52.0007C97.2051 51.4949 97.1808 50.9714 97.0214 50.4762C96.8619 49.981 96.5721 49.5293 96.1775 49.1607C95.666 48.8625 95.5575 49.1607 95.573 48.2803C95.6291 47.9713 95.6139 47.655 95.5285 47.3518C95.443 47.0485 95.2892 46.765 95.077 46.5195C94.426 45.9373 92.938 45.2983 92.473 44.7019C91.6825 43.6369 91.2175 42.5719 89.7295 42.1459C88.6755 41.8335 87.6835 42.4441 86.9705 42.2311C85.994 41.9471 84.9865 40.9815 83.8705 42.0039C83.6213 42.1276 83.3479 42.2052 83.066 42.232C82.7841 42.2588 82.4991 42.2343 82.2275 42.1601C81.2975 41.4359 81.065 40.1863 79.484 39.9165C78.585 39.7745 76.818 40.1721 76.136 39.9165C75.0187 39.163 73.7861 38.5649 72.478 38.1415C71.0156 38.0139 69.5401 38.1293 68.1225 38.4823C67.1305 38.6669 65.8595 38.5675 64.821 38.7095C62.6665 39.0219 62.0465 40.7259 60.6205 41.5495C59.1945 42.3731 56.792 42.3873 55.428 44.2333C54.281 45.7953 54.529 47.4851 54.0795 49.0471C53.8935 49.7145 52.9015 50.4671 52.5295 51.1487C51.6615 52.7249 52.328 54.3153 52.3125 55.6785C52.297 57.0417 51.2585 58.2913 51.553 59.9385C51.7923 60.7611 52.1856 61.5395 52.7155 62.2389C52.7219 62.4691 52.6906 62.6988 52.6225 62.9205C52.1496 64.0379 52.0525 65.2594 52.3435 66.4279C52.5972 67.5481 53.1878 68.581 54.0485 69.4099C55.1335 70.2761 55.6915 70.0489 56.482 71.2843C56.8145 71.9375 57.3143 72.5075 57.939 72.9457C59.086 73.6557 60.4965 73.0451 61.1785 73.3575C61.6028 73.5628 62.0655 73.6928 62.5425 73.7409C62.1609 73.9175 61.8313 74.1756 61.5815 74.4935C53.1495 75.4733 42.0205 81.1107 35.2315 88.8213C32.55 91.9879 28.0395 96.5603 26.35 100.224C17.267 119.025 21.7 148.504 18.042 157.606L8.99 179.233C8.556 180.269 7.44 185.424 7.843 187.199C8.494 189.84 11.5165 186.531 13.361 184.657C12.214 188.392 12.2295 189.371 11.625 204.068C11.439 208.669 11.2685 213.682 11.191 217.899C11.1866 217.93 11.1893 217.96 11.1989 217.99C11.2086 218.019 11.225 218.046 11.2471 218.069C11.2691 218.091 11.2963 218.11 11.3267 218.122C11.3572 218.135 11.3902 218.141 11.4235 218.141C11.8575 218.141 11.5785 218.595 12.214 206.866C12.6635 198.616 13.175 190.919 13.2215 190.294C13.4509 187.867 14.0348 185.479 14.9575 183.194C19.2861 180.232 24.1572 178.001 29.3415 176.606C35.1113 175.192 41.2043 175.335 46.8875 177.017C48.4375 177.486 52.607 178.437 54.095 177.798C57.195 176.378 65.1775 171.678 66.495 168.824C67.146 167.404 67.673 166.254 68.1845 165.189C70.556 165.388 73.47 165.941 76.0585 165.97C78.957 165.97 80.817 165.544 84.0255 162.945C95.821 163.187 108.825 162.86 115.025 162.647C119.164 164.067 131.874 168.228 134.958 171.025C136.167 172.104 136.88 175.115 137.314 178.466C137.886 182.471 138.037 186.518 137.764 190.55C129.27 192.041 118.451 194.398 110.081 196.301C109.612 196.182 109.122 196.148 108.639 196.202C106.423 196.415 107.462 197.238 106.733 195.179C106.768 195.187 106.804 195.186 106.839 195.178C106.873 195.169 106.905 195.153 106.931 195.131C106.957 195.108 106.977 195.08 106.988 195.049C107 195.018 107.003 194.984 106.996 194.952C106.974 192.223 106.625 189.504 105.958 186.844C105.85 186.446 105.09 186.247 104.625 186.12C99.603 184.785 80.2125 182.996 75.95 184.004C73.1755 184.671 53.971 193.759 53.103 195.69C52.235 197.622 49.879 209.237 49.445 211.381C39.401 214.065 31.4805 216.28 27.6055 217.487C27.5734 217.497 27.5437 217.512 27.5183 217.533C27.493 217.553 27.4724 217.578 27.4579 217.606C27.4434 217.634 27.4352 217.664 27.434 217.695C27.4327 217.726 27.4383 217.757 27.4505 217.786C27.6365 218.311 32.7205 215.897 84.8005 203.358C85.3238 204.583 85.9945 205.749 86.8 206.837C85.25 207.178 83.4985 207.803 82.987 209.109C82.8961 209.385 82.881 209.677 82.9432 209.96C83.0054 210.242 83.1429 210.506 83.3435 210.728C84.6151 212.033 86.3103 212.929 88.1795 213.284C91.4569 214.037 94.8625 214.201 98.208 213.767C101.42 213.51 104.586 212.89 107.632 211.921C110.949 210.643 110.732 208.74 109.461 207.874C108.151 207.168 106.712 206.687 105.214 206.454C106.624 204.111 105.307 205.148 107.415 204.679C108.608 204.418 109.698 203.858 110.562 203.06C111.925 201.782 112.84 198.63 111.538 197.11C118.079 195.69 144.383 189.726 150.815 190.167C162.487 190.948 247.349 222.912 267.437 229.075C267.469 229.084 267.502 229.088 267.535 229.085C267.568 229.083 267.6 229.074 267.63 229.06C267.659 229.047 267.685 229.028 267.707 229.004C267.728 228.981 267.745 228.954 267.755 228.926C267.765 228.897 267.769 228.866 267.766 228.836C267.763 228.806 267.754 228.776 267.739 228.749C267.724 228.722 267.703 228.698 267.678 228.678C267.653 228.659 267.624 228.644 267.592 228.634C262.338 226.959 250.62 222.685 236.592 217.544C237.274 216.039 239.072 211.183 240.467 209.507C241.041 208.825 241.01 208.769 246.125 209.038C259.532 209.748 271.343 209.422 284.208 205.659C292.067 203.344 295.926 198.005 298.158 190.862C298.608 190.99 299.832 191.359 300.266 191.445C300.39 191.472 300.519 191.472 300.643 191.445C300.767 191.418 300.882 191.364 300.979 191.288C302.514 189.854 302.25 178.196 302.25 175.399ZM90.241 77.7595C89.8215 77.8995 89.3686 77.9338 88.9297 77.8589C88.4908 77.784 88.0818 77.6025 87.7455 77.3335C87.4109 77.0881 87.149 76.7697 86.9838 76.4075C86.8186 76.0452 86.7554 75.6507 86.8 75.2603C86.7794 75.2019 86.785 75.1384 86.8156 75.0838C86.8461 75.0293 86.899 74.988 86.9628 74.9692C87.0265 74.9503 87.0957 74.9555 87.1553 74.9834C87.2149 75.0114 87.2599 75.0599 87.2805 75.1183C88.0458 76.1267 89.1266 76.899 90.3805 77.3335C90.4204 77.3637 90.4497 77.4041 90.4647 77.4495C90.4798 77.4949 90.4798 77.5434 90.4649 77.5889C90.4501 77.6343 90.4209 77.6747 90.381 77.7051C90.3412 77.7354 90.2925 77.7543 90.241 77.7595ZM75.6865 65.3203C75.7395 64.9031 75.9224 64.5087 76.2135 64.1843C76.5545 63.8719 77.593 64.0707 78.3215 63.6163C78.8663 63.2218 79.2798 62.6955 79.515 62.0969C80.383 60.5207 81.7625 61.7419 83.6845 59.1433C84.1751 58.4125 84.5557 57.6244 84.816 56.8003C85.901 56.3317 87.3115 57.0133 88.6755 54.9543C89.125 54.2585 89.4195 53.5343 90.2255 53.3355C90.83 53.9319 91.4345 56.1755 93.8835 55.3093C93.8835 56.0761 93.6975 59.9527 93.651 60.2651C93.4501 61.2009 93.3412 62.1514 93.3255 63.1051C93.3255 65.9451 94.7515 67.5071 96.3325 70.4749C96.5805 70.9435 95.2785 71.3979 94.6275 71.7245C93.7091 71.4146 92.7587 71.1909 91.791 71.0571C88.784 70.3897 86.3815 71.8239 83.793 72.4771C83.3542 72.4796 82.9169 72.4319 82.491 72.3351C81.5145 72.2499 80.4915 73.1587 79.112 73.3291C78.7523 73.3938 78.3797 73.3579 78.0426 73.2263C77.7054 73.0946 77.4192 72.8732 77.221 72.5907C77.0539 72.0706 76.9346 71.5386 76.8645 71.0003C76.725 70.4891 76.5545 69.9779 76.4305 69.4809C76.1825 68.4585 76.911 68.0609 76.0585 66.6409C75.4695 65.6753 75.485 66.1013 75.6865 65.3203ZM76.2755 94.2883C77.3192 92.4738 78.1704 90.5717 78.8175 88.6083C79.6855 93.5499 80.1505 96.0491 80.3675 97.2987C79.236 96.4325 79.1275 96.1059 76.2755 94.2315V94.2883ZM80.9255 100.068C81.685 104.328 81.5145 103.362 81.654 104.242C81.2837 103.603 80.831 103.008 80.3055 102.467C80.479 101.529 80.5568 100.579 80.538 99.6275L80.9255 100.068ZM75.3145 102.624C74.3889 101.742 73.5439 100.792 72.788 99.7837C73.5544 98.1417 74.4185 96.5394 75.3765 94.9841C78.6315 97.2703 78.3835 97.2419 79.1895 98.1649C79.3078 99.3742 79.3078 100.591 79.1895 101.8L75.3145 102.624ZM75.516 103.547C77.3605 107.31 78.1045 113.487 78.492 117.605C76.5571 112.418 73.9554 107.46 70.742 102.837C71.3704 102.05 71.9302 101.219 72.416 100.352C73.0544 101.441 73.8183 102.464 74.6945 103.405C74.8065 103.469 74.9326 103.51 75.0639 103.525C75.1951 103.54 75.3284 103.528 75.454 103.49L75.516 103.547ZM66.309 73.1587C66.4351 73.1946 66.565 73.2184 66.6965 73.2297C67.0574 73.2148 67.4034 73.0934 67.6828 72.8835C67.9621 72.6736 68.1599 72.3866 68.2465 72.0653C68.4945 71.9233 68.6805 71.7671 68.665 71.4973C68.6495 71.2275 65.317 67.0527 69.564 64.9085C69.9385 64.8713 70.315 64.9603 70.6231 65.1589C70.9312 65.3575 71.1498 65.6521 71.238 65.9877C71.4385 66.7451 71.8621 67.4377 72.4625 67.9899C72.5094 68.8975 72.6391 69.8 72.85 70.6879C72.974 71.2133 72.54 71.8949 72.447 72.6191C72.23 74.0391 73.7335 75.6011 74.276 76.8791C75.0045 78.5973 74.5085 80.4433 76.2445 81.9627C77.9805 83.4821 77.655 82.2325 78.2595 85.6405C77.5364 88.3188 76.54 90.9289 75.2835 93.4363C73.532 91.1643 64.666 77.9015 62.8835 74.8769C63.55 74.5077 65.627 73.4285 66.247 73.1019L66.309 73.1587ZM61.659 75.0473C62.7905 77.4613 74.059 93.8197 74.059 93.9617C73.5165 95.5379 70.401 102.07 68.9285 102.78C65.689 100.664 56.8075 78.4127 56.172 76.3963C57.9207 75.71 59.7603 75.2373 61.6435 74.9905L61.659 75.0473ZM77.655 137.74C75.95 137.243 70.4475 120.132 65.534 110.661C62.589 104.981 56.8075 95.5947 50.499 93.0955C43.679 90.4117 31 96.8443 29.6515 105.194C28.8281 110.7 29.3145 116.305 31.0775 121.623C38.3935 141.887 48.298 158.046 69.4555 162.675C69.9515 161.767 68.2 162.519 82.119 162.86C81.4368 163.346 80.7109 163.778 79.949 164.152C77.345 165.444 72.4005 164.408 68.7425 164.039L69.2075 163.116C47.4145 158.657 37.2155 141.816 29.915 121.936C28.0712 116.457 27.5425 110.678 28.365 104.995C29.76 95.9639 42.8885 89.4887 50.158 91.7323C52.0115 92.3649 53.7084 93.3305 55.149 94.5723C54.4577 88.8822 54.2866 83.1491 54.6375 77.4329C54.9223 77.2011 55.2283 76.9921 55.552 76.8081C56.885 81.0681 64.48 101.431 68.3395 103.689C68.5843 103.821 68.8709 103.874 69.1525 103.838C69.434 103.802 69.6939 103.679 69.8895 103.49C73.377 108.985 76.632 114.608 77.934 120.53C78.6706 123.798 78.8587 127.15 78.492 130.47C76.291 122.12 70.1995 110.05 63.271 104.271C70.3545 115.475 75.516 133.395 77.8255 136.931C78.7494 137.164 79.693 137.326 80.6465 137.414C80.2435 128.894 79.9335 111.129 75.9965 103.419C76.477 103.419 79.8715 102.751 79.8715 102.751C80.4837 103.425 81.0042 104.164 81.4215 104.952C82.057 106.074 81.84 105.222 82.801 111.186C87.451 138.72 87.1875 138.578 87.792 138.876C84.754 138.521 79.4065 138.223 77.655 137.74ZM87.947 132.06C81.902 100.621 81.84 99.7411 79.298 86.6203C79.4995 85.9955 79.6545 85.4843 79.763 85.1151C80.724 86.2369 85.963 92.3855 86.5365 93.7345C85.684 94.4303 82.615 95.6231 83.545 96.5745C83.9635 97.0147 87.42 99.7553 88.505 100.749C89.094 103.035 88.164 128.084 87.947 132.06ZM50.065 211.197C50.499 209.393 53.3355 197.664 54.126 196.017C54.6995 194.796 73.3925 185.708 76.3375 185.026C80.5845 184.004 103.71 186.105 105.322 187.057C106.05 189.534 106.477 192.077 106.593 194.64C103.989 191.8 83.8395 192.552 83.6225 196.557C83.6182 196.688 83.6483 196.819 83.7104 196.937C83.7724 197.056 83.8645 197.159 83.979 197.238C83.9688 198.955 84.1822 200.666 84.6145 202.336C72.7105 205.275 60.8065 208.343 50.065 211.197ZM109.166 208.982C109.957 211.325 100.673 212.333 97.991 212.617C94.807 213.032 91.5654 212.883 88.443 212.177C87.079 211.836 84.5525 210.927 84.072 209.791C83.8395 209.251 84.599 208.74 85.157 208.47C85.864 208.132 86.6136 207.875 87.389 207.704C88.2334 208.77 89.3657 209.616 90.675 210.16C92.225 210.785 98.8435 210.345 101.138 209.89C102.145 209.692 103.215 209.422 104.734 207.192C105.664 207.32 108.903 208.201 109.166 208.982ZM101.758 208.485C100.595 209.124 92.38 209.635 91.1245 209.166C86.9705 207.647 84.7075 201.711 84.537 197.522C87.9139 198.203 91.3797 198.437 94.829 198.218C97.4175 197.906 103.54 196.94 105.788 195.903C107.136 200.561 104.284 207.136 101.758 208.485ZM110.422 201.157C110.002 201.918 109.413 202.589 108.692 203.127C107.971 203.665 107.135 204.059 106.237 204.281C107.048 202.289 107.432 200.173 107.368 198.048C107.491 197.813 107.668 197.606 107.889 197.441C108.109 197.277 108.366 197.159 108.642 197.097C108.917 197.035 109.205 197.029 109.483 197.08C109.761 197.132 110.024 197.239 110.251 197.394C111.414 198.09 110.902 199.95 110.422 201.157ZM270.072 84.1637C280.55 89.4603 285.2 91.6755 288.548 96.3189C286.442 94.6598 283.762 93.7389 280.984 93.7203C271.049 93.4079 266.166 106.884 263.624 115.602C259.408 130.143 261.997 148.546 261.764 151.244C259.083 153.531 245.35 160.063 239.212 163.116C240.064 159.821 243.102 147.112 245.086 142.1C247.752 135.369 255.425 119.692 255.936 116.284C256.076 115.276 255.859 115.148 252.604 113.217C253.859 113.217 257.254 112.904 258.308 112.72C258.757 112.72 258.99 112.535 259.16 111.669C259.734 108.659 260.85 83.8513 260.943 81.2101C260.834 81.1533 268.739 83.4679 270.119 84.1637H270.072ZM258.122 80.7699C258.827 80.7233 259.537 80.7955 260.214 80.9829C259.439 91.2779 258.664 109.383 257.936 111.697C257.114 111.839 254.2 112.024 253.069 112.095C250.651 112.223 250.589 112.095 250.34 112.407C250.093 112.72 250.434 113.146 250.883 113.43C251.674 113.941 254.309 115.46 254.681 115.858C254.323 117.549 253.772 119.2 253.038 120.785C244.28 142.085 244.807 135.539 238.917 158.898C239.311 147.709 240.439 136.551 242.296 125.486C243.536 119.394 245.04 113.671 250.046 100.636C252.015 95.5947 256.091 85.9387 256.246 85.9955C257.024 84.2984 257.666 82.552 258.168 80.7699H258.122ZM231.198 167.915C231.493 168.966 231.493 168.824 231.4 168.838L230.919 168.753C230.919 168.611 230.082 154.354 230.485 148.461C231.214 138.024 232.144 126.707 233.012 115.801C233.43 110.519 235.011 99.1731 234.965 99.5991L236.515 98.5483C237.158 99.7239 237.888 100.858 238.7 101.942C239.01 102.325 239.428 102.808 239.924 102.851C239.584 105.421 234.422 137.13 232.903 157.393C232.066 168.426 232.903 166.083 231.679 167.092C231.533 167.182 231.416 167.305 231.34 167.45C231.264 167.594 231.231 167.755 231.245 167.915H231.198ZM240.405 102.865C241.583 102.865 242.854 100.593 244.404 99.6275C245.008 100.21 246.838 102.993 248.047 103.362C242.916 116.256 237.429 134.233 237.445 163.911C236.127 164.564 234.345 165.501 233.027 166.197C233.802 154.113 239.413 114.452 240.452 102.865H240.405ZM256.68 83.7803C256.184 85.2003 248.822 101.488 248.31 102.24C247.511 101.522 246.799 100.727 246.187 99.8689C244.885 98.2643 244.435 97.7389 242.219 100.025C245.505 94.3451 251.922 88.5799 254.619 85.7115C257.192 83.0135 256.851 83.2407 256.68 83.7803ZM221.96 53.9603C223.116 54.2866 224.353 54.2866 225.51 53.9603C226.394 53.6001 227.371 53.4722 228.331 53.5911C229.685 54.1631 231.078 54.6564 232.5 55.0679C234.259 55.0537 236.015 54.9256 237.755 54.6845C238.552 55.0257 239.227 55.567 239.701 56.2457C240.176 56.9244 240.431 57.7125 240.436 58.5185C237.547 58.9028 234.759 59.764 232.206 61.0603C232.049 60.594 231.738 60.1838 231.316 59.8863C230.894 59.5887 230.382 59.4184 229.85 59.3989C227.308 59.1187 224.741 59.0901 222.193 59.3137C221.966 57.4992 221.889 55.6718 221.96 53.8467V53.9603ZM221.356 66.0729C220.968 65.4481 220.209 60.6059 220.984 60.0805C221.108 60.2225 220.565 59.7823 223.51 59.8107C225.586 59.8707 227.656 60.0414 229.71 60.3219C231.105 60.5491 231.338 61.1313 231.26 62.3667C231.26 64.6529 231.338 64.4257 231.26 65.1357C231.26 65.3345 231.167 65.8599 230.997 65.9735C227.808 66.5021 224.542 66.4973 221.356 65.9593V66.0729ZM235.6 82.0763C231.353 80.9687 227.463 80.8267 224.843 75.8851C223.154 72.7043 224.084 71.7813 222.549 71.3695C221.98 71.3073 221.419 71.1932 220.875 71.0287C220.875 70.0773 222.177 68.0893 222.425 67.0811C224.999 67.363 227.601 67.363 230.175 67.0811C231.725 66.8681 232.547 66.6267 232.299 63.7441V61.5431C234.732 60.8615 239.894 59.7397 240.514 59.5835C240.517 60.3559 240.632 61.1246 240.855 61.8697C241.097 62.3382 241.515 62.7112 242.033 62.9205C242.115 62.9542 242.205 62.9699 242.296 62.9665C242.387 62.9631 242.475 62.9406 242.554 62.9008C242.634 62.8609 242.702 62.8048 242.754 62.7368C242.806 62.6688 242.84 62.5907 242.854 62.5087C243.211 61.1881 243.49 60.0095 243.598 59.4415C243.598 59.7539 243.738 58.4475 244.761 57.9363C246.311 57.1979 248.713 58.8451 248.884 61.1739C248.977 62.3099 247.737 64.3689 246.807 66.7403C246.249 68.1603 249.628 68.7709 250.806 69.2963C251.24 70.2193 250.976 71.2559 251.565 71.8097C252.449 72.3089 253.418 72.6689 254.433 72.8747C255.502 76.0134 256.279 79.2293 256.758 82.4881C252.821 86.2795 251.937 87.1883 250.883 88.1681C246.765 91.7525 243.273 95.8951 240.529 100.451C239.428 94.5297 237.336 89.3041 237.104 87.5859C236.918 86.2511 237.228 83.8939 236.546 82.6301C236.442 82.4797 236.304 82.3521 236.14 82.2563C235.977 82.1606 235.792 82.0991 235.6 82.0763ZM236.049 86.8901C236.794 89.4177 238.778 97.6253 239.351 100.92C238.406 99.6133 237.243 97.4549 237.243 97.4549C237.203 97.3778 237.144 97.3101 237.071 97.2568C236.998 97.2034 236.913 97.1658 236.823 97.1467C236.732 97.1276 236.637 97.1275 236.546 97.1464C236.456 97.1654 236.37 97.2028 236.298 97.2561L235.166 98.0513C235.6 94.3593 236.034 90.5963 236.096 86.8901H236.049ZM235.6 85.6263C235.461 96.0775 233.182 105.393 232.252 115.801C229.152 150.79 229.152 149.072 229.462 161.454C227.788 150.265 225.448 128.496 224.161 116.696C225.076 116.057 229.493 112.975 229.989 112.038C230.222 111.584 229.989 111.115 228.873 111.115C226.933 111.249 224.985 111.249 223.045 111.115C224.223 106.713 230.966 90.6531 232.764 86.3931C233.678 86.1517 234.438 85.9103 235.6 85.6263ZM163.54 136.519C165.943 134.204 196.09 128.808 197.734 127.346C200.043 125.216 206.398 111.996 212.877 101.97C218.38 93.4505 221.371 90.2981 232.082 86.6771C229.509 92.5133 224.487 103.93 222.224 110.576C222.084 110.987 221.883 111.442 222.224 111.712C223.076 112.478 226.641 112.024 228.687 112.052C227.245 113.373 223.278 116.057 223.278 116.057C223.201 116.109 223.141 116.178 223.103 116.257C223.065 116.337 223.05 116.425 223.061 116.511C223.712 123.1 227.711 162.42 229.447 168.128L226.657 167.475C224.853 166.664 222.895 166.182 220.891 166.055C224.424 149.952 223.154 145.451 223.588 136.675C223.588 135.766 219.403 117.505 219.372 117.363C219.372 117.303 219.345 117.245 219.299 117.203C219.252 117.16 219.189 117.136 219.124 117.136C219.058 117.136 218.995 117.16 218.948 117.203C218.902 117.245 218.876 117.303 218.876 117.363C219.139 123.583 221.061 129.504 222.379 136.292C217.419 140.552 212.226 146.445 203.779 148.362C198.555 149.569 174.096 154.454 170.841 154.667C168.175 151.94 163.122 138.337 163.54 136.519ZM160.596 138.408C160.596 138.408 162.456 137.996 162.424 137.726C163.872 142.716 165.695 147.607 167.88 152.366C166.471 152.766 165.031 153.065 163.572 153.261C162.688 153.261 163.308 153.971 161.154 149.285C159.826 146.372 158.687 143.389 157.743 140.353C157.48 139.373 157.031 139.473 160.596 138.408ZM142.445 141.404C143.669 140.168 144.553 139.984 156.798 141.404C157.887 144.79 159.207 148.11 160.751 151.344C158.231 153.144 155.342 154.462 152.257 155.22C152.163 154.61 151.947 154.794 152.473 154.837C152.919 154.849 153.361 154.768 153.768 154.603C154.174 154.437 154.535 154.189 154.824 153.879C155.113 153.568 155.321 153.202 155.435 152.807C155.549 152.413 155.564 152 155.48 151.599C155.356 150.179 150.923 147.226 149.668 146.416C150.413 146.557 151.187 146.503 151.9 146.26C151.964 146.241 152.017 146.2 152.047 146.146C152.078 146.091 152.083 146.028 152.063 145.969C152.042 145.911 151.997 145.862 151.938 145.834C151.878 145.806 151.809 145.801 151.745 145.82C149.141 146.445 146.506 143.605 146.165 143.52C144.971 143.25 145.715 145.792 143.065 147.311C142.678 147.538 141.189 147.027 141.096 146.331C140.901 145.47 140.921 144.579 141.155 143.726C141.388 142.873 141.829 142.079 142.445 141.404ZM125.116 145.877C127.1 145.224 137.206 142.355 140.12 143.037C139.792 144.171 139.718 145.355 139.903 146.516C140.001 146.885 140.186 147.23 140.443 147.528C140.7 147.825 141.024 148.069 141.394 148.241C141.763 148.414 142.168 148.511 142.583 148.527C142.997 148.543 143.41 148.477 143.793 148.333C144.874 147.674 145.686 146.705 146.103 145.579C147.482 146.345 154.333 150.506 154.241 151.983C154.241 152.977 153.667 153.815 152.582 153.729C151.666 153.429 150.8 153.013 150.009 152.494C149.213 151.912 148.374 151.38 147.498 150.904C147.359 150.837 147.198 150.821 147.046 150.857C146.894 150.893 146.762 150.979 146.675 151.099C146.589 151.219 146.554 151.364 146.577 151.506C146.6 151.648 146.68 151.778 146.8 151.869C146.8 151.869 147.963 152.664 149.249 153.431C151.187 154.851 151.854 156.158 149.451 156.825C149.075 156.927 148.68 156.957 148.29 156.913C147.901 156.869 147.526 156.752 147.188 156.569C146.793 155.855 146.269 155.207 145.638 154.652C145.356 153.989 144.852 153.425 144.197 153.042C143.542 152.659 142.771 152.477 141.995 152.522C141.189 152.608 141.128 152.977 141.205 152.636C141.577 150.946 139.221 149.924 137.578 150.208C134.927 150.691 133.455 153.9 132.587 156.243C132.06 157.265 134.137 156.129 125.07 159.083C125.325 154.959 125.325 150.825 125.07 146.7C124.992 145.721 124.961 145.948 125.116 145.877ZM133.021 156.399C133.873 154.723 135.749 151.585 137.749 151.301C138.523 151.173 140.089 151.656 139.918 152.38C139.583 154.303 138.615 156.087 137.144 157.492C137.33 157.776 132.479 157.862 133.021 156.399ZM141.794 153.687C142.166 153.346 144.336 154.042 144.398 155.107C144.507 156.882 142.662 158.998 141.066 159.977C140.554 160.304 138.539 158.799 138.074 158.188C139.181 156.599 140.425 155.094 141.794 153.687ZM144.413 158.415C144.522 158.273 146.072 155.121 146.336 157.734C146.444 158.756 144.785 159.296 143.701 159.154C143.953 158.92 144.191 158.673 144.413 158.415ZM178.885 176.875C172.36 181.519 171.43 187.625 172.499 194.909C162.021 191.501 154.023 189.229 150.908 188.988C146.691 189.068 142.495 189.543 138.384 190.408C138.802 186.588 138.616 173.183 135.656 170.429C132.695 167.674 121.954 163.911 117.908 162.491H118.823C119.18 162.32 118.59 160.829 119.939 160.744C121.566 160.659 123.845 161.227 124.589 160.631C124.811 160.321 124.94 159.964 124.961 159.594C126.666 159.097 130.681 157.975 132.711 157.492C133.394 157.989 134.193 158.333 135.045 158.498C135.898 158.663 136.781 158.645 137.624 158.444C138.089 159.395 140.26 161.483 141.608 160.801C141.982 160.603 142.34 160.38 142.678 160.134C143.658 160.383 144.699 160.343 145.654 160.02C146.159 159.894 146.609 159.629 146.945 159.261C147.28 158.893 147.484 158.439 147.529 157.961C148.341 158.175 149.206 158.14 149.994 157.864C150.783 157.587 151.452 157.083 151.9 156.427C155.298 155.728 158.479 154.329 161.2 152.338C161.494 152.92 161.773 153.417 162.006 153.758C162.083 153.878 162.191 153.978 162.321 154.05C162.451 154.122 162.598 154.163 162.75 154.17C164.3 154.312 167.958 152.75 168.113 152.75C168.644 153.764 169.305 154.718 170.081 155.59C170.361 155.845 170.826 155.774 171.259 155.732C175.755 155.235 198.074 150.833 204.042 149.469C211.792 147.694 216.845 142.71 222.162 137.967C221.867 146.118 223.03 150.094 219.511 166.098C212.195 166.931 204.946 168.202 197.811 169.903C191.564 171.536 184.125 173.155 178.885 176.89V176.875ZM201.5 204.892L200.957 204.693C200.833 197.48 202.787 190.834 208.553 185.907C209.063 186.026 209.58 186.116 210.103 186.176C204.166 190.834 201.826 197.622 201.5 204.892ZM225.975 181.221C221.325 183.72 222.689 185.069 218.426 185.481C215.011 185.696 211.58 185.452 208.243 184.756C205.546 183.961 206.972 183.01 209.793 182.726C210.273 182.797 214.055 182.825 215.838 182.726C215.983 182.705 216.116 182.636 216.211 182.534C216.307 182.431 216.36 182.3 216.36 182.165C216.36 182.03 216.307 181.899 216.211 181.796C216.116 181.694 215.983 181.625 215.838 181.604C213.827 181.446 211.807 181.417 209.793 181.519C208.509 181.502 207.232 181.364 205.98 181.107C205.855 180.921 205.782 180.709 205.769 180.491C205.755 180.273 205.801 180.055 205.902 179.857C207.529 178.963 215.202 179.304 216.473 179.261C216.623 179.239 216.759 179.17 216.857 179.064C216.956 178.959 217.01 178.825 217.01 178.686C217.01 178.547 216.956 178.413 216.857 178.308C216.759 178.202 216.623 178.132 216.473 178.111C213.93 178.16 211.386 178.037 208.863 177.742C207.778 177.571 205.251 177.074 205.437 176.066C205.778 174.248 209.855 175.81 212.722 175.626C214.745 175.598 216.748 175.252 218.643 174.603C218.785 174.564 218.904 174.474 218.973 174.355C219.043 174.235 219.058 174.094 219.015 173.964C218.972 173.835 218.874 173.726 218.743 173.662C218.613 173.598 218.459 173.584 218.318 173.624C216.378 174.051 214.411 174.364 212.428 174.561C212.302 174.537 212.19 174.472 212.113 174.378C212.036 174.284 211.999 174.167 212.009 174.05C212.031 173.784 212.105 173.525 212.226 173.283C213.025 172.328 214.099 171.595 215.326 171.167C219.728 169.491 223.076 171.167 228.114 171.465C228.746 174.091 229.548 176.68 230.516 179.218C228.971 179.784 227.474 180.453 226.037 181.221H225.975ZM231.896 179.488C231.353 177.813 229.338 171.735 229.137 170.315C229.936 169.957 230.779 169.685 231.648 169.506C232.361 171.934 233.678 176.151 234.531 178.508C233.699 178.89 232.839 179.217 231.958 179.488H231.896ZM236.282 179.488C235.461 177.784 233.027 169.846 232.469 167.858C235.135 165.856 259.067 155.078 262.632 151.798C263.748 150.776 259.982 131.535 264.399 115.702C266.755 107.182 271.374 93.7913 280.907 94.0895C287.448 94.2883 291.183 98.8607 293.307 104.569C297.197 115.077 295.647 129.66 295.647 129.518C295.647 141.432 290.997 159.338 281.697 167.858C274.676 174.305 240.653 180.212 236.344 179.531L236.282 179.488ZM300.189 190.28C298.375 189.84 290.052 187.028 286.533 186.759C268.259 185.339 269.39 182.158 258.09 177.614C264.29 176.194 278.07 172.899 282.643 168.753C292.299 159.977 296.763 141.887 296.716 129.646C297.075 125.359 297.075 121.054 296.716 116.767C300.142 134.574 302.25 184.884 300.189 190.28Z" fill="black"/>
<path fill-rule="evenodd" clip-rule="evenodd" d="M60.5275 94.2883L55.4435 94.8279C56.9934 96.1632 58.4047 97.6274 59.6595 99.2015L61.07 94.9415C61.113 94.8652 61.1315 94.7792 61.1234 94.6936C61.1152 94.608 61.0808 94.5263 61.024 94.4579C60.9672 94.3895 60.8904 94.3373 60.8025 94.3073C60.7146 94.2773 60.6193 94.2707 60.5275 94.2883ZM207.56 223.878C206.282 223.136 204.87 222.607 203.391 222.316C206.909 217.076 206.274 210.956 205.344 210.416C204.469 209.599 203.303 209.095 202.058 208.996C197.408 208.101 186.139 208.03 183.163 210.302C182.512 210.799 182.125 211.609 182.76 212.148C182.458 215.514 183.228 218.888 184.977 221.861C183.427 222.131 181.629 222.671 181.04 223.949C180.938 224.223 180.911 224.517 180.959 224.803C181.008 225.09 181.131 225.362 181.319 225.596C182.509 226.948 184.137 227.917 185.969 228.365C189.204 229.267 192.598 229.59 195.966 229.316C199.185 229.196 202.375 228.719 205.468 227.896C208.893 226.732 208.862 224.815 207.56 223.878ZM183.303 212.404C186.635 213.238 190.08 213.63 193.533 213.568C197.298 213.332 201.016 212.664 204.6 211.58C204.91 213.534 204.796 215.524 204.264 217.437C203.732 219.35 202.793 221.148 201.5 222.727C201.188 223.229 200.737 223.646 200.193 223.938C199.648 224.23 199.03 224.385 198.4 224.389C196.23 224.644 190.309 224.786 189.1 224.289C185.178 222.628 183.241 216.593 183.303 212.404ZM195.904 228.024C192.705 228.302 189.477 228.002 186.403 227.144C185.011 226.796 183.73 226.149 182.667 225.255C182.419 225.014 182.016 224.531 182.14 224.233C182.543 223.295 184.512 222.813 185.597 222.642C186.374 223.727 187.441 224.612 188.697 225.212C190.247 225.937 198.834 225.851 200.43 225.099C201.426 224.542 202.269 223.785 202.895 222.884C203.809 223.125 207.002 224.119 207.219 224.914C207.917 227.357 198.694 227.939 195.904 228.095V228.024Z" fill="black"/>
</g>
<defs>
<clipPath id="clip0_103_202">
<rect width="294.51" height="217.293" fill="white" transform="translate(7.75674 33.3411)"/>
</clipPath>
</defs>
</svg>
