<svg width="25" height="24" viewBox="0 0 25 24" fill="none" xmlns="http://www.w3.org/2000/svg">
<g clip-path="url(#clip0_103_210)">
<path d="M15.5171 22.2857C16.5728 22.9668 17.8309 23.2636 19.0797 23.1262C20.3285 22.9888 21.4919 22.4257 22.3743 21.5314L23.1457 20.7771C23.4839 20.4312 23.6733 19.9666 23.6733 19.4828C23.6733 18.9991 23.4839 18.5345 23.1457 18.1886L19.8714 14.9486C19.5284 14.6114 19.0667 14.4225 18.5857 14.4225C18.1048 14.4225 17.643 14.6114 17.3 14.9486V14.9486C16.9541 15.2868 16.4895 15.4761 16.0057 15.4761C15.5219 15.4761 15.0574 15.2868 14.7114 14.9486L9.56857 9.8057C9.39701 9.63663 9.26077 9.43514 9.16778 9.21295C9.07479 8.99075 9.0269 8.75229 9.0269 8.51142C9.0269 8.27055 9.07479 8.03208 9.16778 7.80989C9.26077 7.58769 9.39701 7.3862 9.56857 7.21713V7.21713C9.90569 6.8741 10.0946 6.41238 10.0946 5.93142C10.0946 5.45045 9.90569 4.98874 9.56857 4.6457L6.31143 1.38856C5.9655 1.05036 5.50093 0.860992 5.01714 0.860992C4.53336 0.860992 4.06879 1.05036 3.72286 1.38856L2.96857 2.15999C2.07431 3.0424 1.51114 4.20582 1.37378 5.45462C1.23641 6.70341 1.53321 7.96143 2.21429 9.01713C5.76293 14.247 10.2782 18.7506 15.5171 22.2857V22.2857Z" stroke="white" stroke-linecap="round" stroke-linejoin="round"/>
</g>
<defs>
<clipPath id="clip0_103_210">
<rect width="24" height="24" fill="white" transform="translate(0.5)"/>
</clipPath>
</defs>
</svg>
